<svg width="19" height="22" viewBox="0 0 19 22" fill="none" xmlns="http://www.w3.org/2000/svg">
<path opacity="0.8" d="M6.5625 4.71875V6.6875H11.8125V4.71875C11.8125 3.2832 10.623 2.09375 9.1875 2.09375C7.71094 2.09375 6.5625 3.2832 6.5625 4.71875ZM4.59375 6.6875V4.71875C4.59375 2.2168 6.64453 0.125 9.1875 0.125C11.6895 0.125 13.7812 2.2168 13.7812 4.71875V6.6875H16.4062C17.4727 6.6875 18.375 7.58984 18.375 8.65625V17.1875C18.375 19.3613 16.6113 21.125 14.4375 21.125H3.9375C1.76367 21.125 0 19.3613 0 17.1875V8.65625C0 7.58984 0.861328 6.6875 1.96875 6.6875H4.59375ZM5.57812 8.65625C5.00391 8.65625 4.59375 9.10742 4.59375 9.64062C4.59375 10.2148 5.00391 10.625 5.57812 10.625C6.11133 10.625 6.5625 10.2148 6.5625 9.64062C6.5625 9.10742 6.11133 8.65625 5.57812 8.65625ZM11.8125 9.64062C11.8125 10.2148 12.2227 10.625 12.7969 10.625C13.3301 10.625 13.7812 10.2148 13.7812 9.64062C13.7812 9.10742 13.3301 8.65625 12.7969 8.65625C12.2227 8.65625 11.8125 9.10742 11.8125 9.64062Z" fill="black"/>
</svg>
