<svg width="23" height="21" viewBox="0 0 23 21" fill="none" xmlns="http://www.w3.org/2000/svg">
<path d="M22.4609 10.5C22.4609 11.2031 21.875 11.75 21.2109 11.75H19.9609L20 18C20 18.1172 20 18.2344 20 18.3125V18.9766C20 19.8359 19.2969 20.5391 18.4375 20.5391H17.8125C17.7344 20.5391 17.6953 20.5391 17.6562 20.5C17.6172 20.5391 17.5391 20.5391 17.5 20.5391L16.25 20.5H15.3125C14.4141 20.5 13.75 19.8359 13.75 18.9375V18V15.5C13.75 14.8359 13.1641 14.25 12.5 14.25H10C9.29688 14.25 8.75 14.8359 8.75 15.5V18V18.9375C8.75 19.8359 8.04688 20.5 7.1875 20.5H6.25H5C4.92188 20.5 4.88281 20.5 4.80469 20.5C4.76562 20.5 4.72656 20.5 4.6875 20.5H4.0625C3.16406 20.5 2.5 19.8359 2.5 18.9375V14.5625C2.5 14.5625 2.5 14.5234 2.5 14.4844V11.75H1.25C0.546875 11.75 0 11.2031 0 10.5C0 10.1484 0.117188 9.83594 0.390625 9.5625L10.3906 0.8125C10.6641 0.539062 10.9766 0.5 11.25 0.5C11.5234 0.5 11.8359 0.578125 12.0703 0.773438L22.0312 9.5625C22.3438 9.83594 22.5 10.1484 22.4609 10.5Z" fill="black"/>
</svg>
