<svg width="29" height="29" viewBox="0 0 29 29" fill="none" xmlns="http://www.w3.org/2000/svg">
<path d="M14.5 7.3125C18.4375 7.3125 21.6875 10.5625 21.6875 14.5C21.6875 18.5 18.4375 21.6875 14.5 21.6875C10.5 21.6875 7.3125 18.5 7.3125 14.5C7.3125 10.5625 10.5 7.3125 14.5 7.3125ZM14.5 19.1875C17.0625 19.1875 19.125 17.125 19.125 14.5C19.125 11.9375 17.0625 9.875 14.5 9.875C11.875 9.875 9.8125 11.9375 9.8125 14.5C9.8125 17.125 11.9375 19.1875 14.5 19.1875ZM23.625 7.0625C23.625 6.125 22.875 5.375 21.9375 5.375C21 5.375 20.25 6.125 20.25 7.0625C20.25 8 21 8.75 21.9375 8.75C22.875 8.75 23.625 8 23.625 7.0625ZM28.375 8.75C28.5 11.0625 28.5 18 28.375 20.3125C28.25 22.5625 27.75 24.5 26.125 26.1875C24.5 27.8125 22.5 28.3125 20.25 28.4375C17.9375 28.5625 11 28.5625 8.6875 28.4375C6.4375 28.3125 4.5 27.8125 2.8125 26.1875C1.1875 24.5 0.6875 22.5625 0.5625 20.3125C0.4375 18 0.4375 11.0625 0.5625 8.75C0.6875 6.5 1.1875 4.5 2.8125 2.875C4.5 1.25 6.4375 0.75 8.6875 0.625C11 0.5 17.9375 0.5 20.25 0.625C22.5 0.75 24.5 1.25 26.125 2.875C27.75 4.5 28.25 6.5 28.375 8.75ZM25.375 22.75C26.125 20.9375 25.9375 16.5625 25.9375 14.5C25.9375 12.5 26.125 8.125 25.375 6.25C24.875 5.0625 23.9375 4.0625 22.75 3.625C20.875 2.875 16.5 3.0625 14.5 3.0625C12.4375 3.0625 8.0625 2.875 6.25 3.625C5 4.125 4.0625 5.0625 3.5625 6.25C2.8125 8.125 3 12.5 3 14.5C3 16.5625 2.8125 20.9375 3.5625 22.75C4.0625 24 5 24.9375 6.25 25.4375C8.0625 26.1875 12.4375 26 14.5 26C16.5 26 20.875 26.1875 22.75 25.4375C23.9375 24.9375 24.9375 24 25.375 22.75Z" fill="#786757"/>
</svg>
