<svg width="85" height="66" viewBox="0 0 85 66" fill="none" xmlns="http://www.w3.org/2000/svg">
<g clip-path="url(#clip0_3188_473)">
<path d="M41.2 4.79991C56.8 3.89991 67.1 20.8999 58.8 34.2999C51.1 46.7999 32.8 46.3999 25.6 33.6999C18.4 20.9999 27 5.59991 41.2 4.79991ZM51 28.0999C51.7 25.1999 51.9 22.2999 51.3 19.3999C50.4 15.2999 47.9 11.3999 44.8 8.59991C44.5 8.29991 43 7.09991 42.7 7.09991C42.5 7.09991 41.7 7.69991 41.5 7.79991C33.9 13.3999 30.9 22.6999 35.6 31.2999L36.8 33.4999C33 31.1999 30.7 27.1999 29.7 22.8999C29.7 22.4999 29.5 21.0999 29.2 20.8999C28.8 20.5999 28.6 21.0999 28.5 21.3999C27.6 23.5999 27.4 26.7999 27.7 29.0999C28.7 37.5999 35.8 42.2999 44.1 41.5999C55.9 40.4999 59.1 27.5999 54 18.2999C53.8 17.9999 52.8 16.1999 52.5 16.0999C52.5 16.0999 52.3 16.0999 52.2 16.0999C52.2 16.1999 52.5 17.6999 52.5 17.9999C53 20.9999 52.2 24.7999 51 27.5999C51 27.5999 50.9 27.8999 50.8 27.9999L51 28.0999Z" fill="black"/>
<path d="M66.9 20.4004C66.9 20.4004 68.3 19.6004 68.4 19.5004C68.6 19.4004 69.4999 18.6004 69.5999 18.5004C69.5999 18.4004 69.5999 18.1004 69.5999 18.0004C69.5999 16.9004 69.5999 15.7004 69.5999 14.6004L71.8 12.9004C71.8 15.0004 71.8 17.1004 71.3 19.2004C70.5 23.6004 68.5 24.9004 64.8 27.0004L62.5999 28.1004C63.5999 22.6004 62.4 16.8004 59.2 12.2004C62.2 10.0004 64.8 7.10039 67 4.00039C68 2.70039 68.7999 1.30039 69.6999 -0.0996094C70.5999 2.70039 71.2 5.50039 71.5 8.40039L69.0999 10.7004L68.5 7.10039L66.0999 9.60039L66.5 12.9004L63.7999 14.8004C63.7999 14.9004 64 18.2004 64 18.2004L66.6999 16.4004V16.7004V20.3004L66.9 20.4004Z" fill="black"/>
<path d="M23.8001 33.2995C26.8001 41.6995 35.2001 45.7995 43.6001 46.3995C45.2001 46.4995 46.7001 46.3995 48.3001 46.3995H48.5001C46.7001 46.9995 44.8001 47.2995 42.8001 47.3995C37.0001 47.7995 26.9001 46.4995 22.0001 43.2995C17.8001 40.4995 17.9001 36.9995 22.0001 34.0995C22.2001 33.8995 23.6001 32.9995 23.7001 33.0995L23.8001 33.2995Z" fill="black"/>
<path d="M8.3999 53.0996C9.2999 53.0996 10.4999 53.4996 11.0999 54.2996C11.8999 55.1996 11.9999 56.9996 11.0999 57.9996C10.7999 58.2996 10.3999 58.3996 9.9999 58.6996C13.1999 59.3996 13.0999 63.5996 10.0999 64.5996C9.5999 64.7996 8.7999 64.8996 8.1999 64.9996C6.0999 65.0996 3.9999 64.9996 1.8999 64.9996V53.1996H8.2999L8.3999 53.0996ZM4.9999 57.6996H7.4999C7.6999 57.6996 8.2999 57.4996 8.3999 57.3996C8.8999 56.9996 8.7999 55.8996 8.1999 55.5996C8.1999 55.5996 7.6999 55.3996 7.5999 55.3996H4.9999V57.7996V57.6996ZM4.9999 62.6996H7.7999C7.8999 62.6996 8.3999 62.4996 8.5999 62.4996C9.4999 62.0996 9.4999 60.5996 8.5999 60.0996C8.4999 60.0996 7.9999 59.8996 7.8999 59.8996H4.9999V62.6996Z" fill="black"/>
<path d="M24.5999 52.9004C28.1999 52.6004 30.9999 54.4004 31.3999 58.1004C31.9999 62.5004 29.0999 65.6004 24.6999 65.2004C17.7999 64.6004 17.6999 53.6004 24.5999 52.9004ZM25.0999 55.3004C21.5999 55.8004 21.9999 64.0004 26.2999 62.7004C29.1999 61.9004 29.0999 54.7004 25.0999 55.3004Z" fill="black"/>
<path d="M17.4999 53.0996H14.3999V64.8996H17.4999V53.0996Z" fill="black"/>
<path d="M64.7001 56.0004H63.7001C63.6001 54.9004 62.9001 54.0004 61.8001 53.8004C59.3001 53.4004 57.7001 56.0004 60.2001 57.5004C62.0001 58.5004 64.8001 59.0004 65.0001 61.6004C65.4001 66.3004 57.2001 66.4004 57.6001 61.6004H58.6001C58.6001 63.7004 60.4001 64.8004 62.3001 64.2004C63.2001 64.0004 64.0001 63.2004 64.0001 62.2004C64.3001 59.2004 59.4001 59.3004 58.3001 57.2004C57.4001 55.5004 58.3001 53.7004 60.1001 53.2004C62.3001 52.5004 64.6001 53.6004 64.7001 56.1004V56.0004Z" fill="black"/>
<path d="M39.9999 55.9997H38.9999C38.9999 52.9997 33.9999 53.0997 34.2999 55.9997C34.3999 57.1997 36.2999 57.7997 37.1999 58.2997C38.4999 58.8997 39.8999 59.5997 40.2999 61.0997C41.2999 65.5997 33.9999 66.5997 33.0999 62.5997C33.0999 62.1997 33.0999 61.8997 32.8999 61.4997H33.8999C33.8999 63.4997 35.5999 64.5997 37.4999 64.1997C39.3999 63.7997 40.0999 61.4997 38.4999 60.1997C36.8999 58.8997 33.4999 58.5997 33.2999 56.0997C32.9999 51.9997 40.1999 51.7997 39.9999 56.0997V55.9997Z" fill="black"/>
<path d="M73.9999 55.9996H73.0999C73.0999 53.5996 69.4999 52.9996 68.4999 54.8996C67.2999 57.2996 71.2999 58.0996 72.6999 59.0996C75.4999 60.8996 74.4999 64.7996 71.2999 65.0996C68.7999 65.3996 66.9999 64.0996 66.8999 61.4996H67.7999C67.7999 63.5996 69.5999 64.6996 71.5999 64.0996C72.3999 63.8996 73.1999 63.0996 73.2999 62.2996C73.6999 58.7996 67.6999 59.3996 67.2999 56.2996C66.6999 51.9996 73.9999 51.5996 73.9999 55.9996Z" fill="black"/>
<path d="M43.7 53.1C43.7 55 43.7 56.9 43.7 58.8C43.7 61.3 43.2 64.2 46.7 64.2C50.2 64.2 49.9 63.1 49.8 61.1V53H50.7V61.8C50.7 63.6 49 64.8 47.4 64.9C44.4 65.1 42.8 63.9 42.7 61C42.6 58.4 42.7 55.6 42.7 53H43.7V53.1Z" fill="black"/>
<path d="M83 53.0996V53.9996H77.8V58.3996H82.6V59.1996H77.8V64.0996H83.1V64.8996H76.8V53.0996H83Z" fill="black"/>
<path d="M54.8 53.0996H53.8V64.8996H54.8V53.0996Z" fill="black"/>
</g>
<defs>
<clipPath id="clip0_3188_473">
<rect width="85" height="65.2" fill="white"/>
</clipPath>
</defs>
</svg>
