<svg width="177" height="40" viewBox="0 0 177 40" fill="none" xmlns="http://www.w3.org/2000/svg">
<g id="Group">
<g id="Calque_1">
<g id="Group_2">
<path id="Vector" d="M14.8535 39.8623C12.7404 39.8623 10.6982 39.5236 8.76947 38.8604C6.82655 38.1971 5.1389 37.2234 3.67817 35.9674C2.21743 34.7115 1.16797 33.2015 0.529785 31.4516L8.13128 28.6575C8.31565 29.1796 8.71274 29.6735 9.33674 30.1534C9.96075 30.6332 10.7408 31.0283 11.6909 31.3529C12.6411 31.6633 13.7048 31.8185 14.8677 31.8185C15.9455 31.8185 16.9666 31.6633 17.9168 31.3529C18.867 31.0424 19.647 30.6049 20.2284 30.0546C20.8099 29.5042 21.1219 28.8551 21.1219 28.1212C21.1219 27.3874 20.8099 26.7524 20.1859 26.2585C19.5619 25.7646 18.7677 25.3694 17.8175 25.0731C16.8531 24.7767 15.8746 24.5651 14.8677 24.4098C12.1306 24.0147 9.69129 23.3656 7.52146 22.4624C5.35163 21.5592 3.6498 20.3174 2.4018 18.7228C1.15379 17.1281 0.529785 15.1101 0.529785 12.6688C0.529785 10.2274 1.19633 8.28 2.52943 6.51602C3.86253 4.75204 5.62109 3.38319 7.79092 2.39537C9.96075 1.40754 12.3291 0.927734 14.8677 0.927734C16.995 0.927734 19.023 1.26642 20.9659 1.92967C22.9088 2.60704 24.6106 3.56665 26.0714 4.83671C27.5321 6.10678 28.5674 7.63086 29.1914 9.39484L21.5899 12.1325C21.4055 11.6104 21.0084 11.1165 20.3844 10.6508C19.7604 10.171 18.9804 9.78997 18.0302 9.47951C17.0801 9.18316 16.0164 9.02793 14.8535 9.02793C13.8182 9.01382 12.8113 9.16905 11.8611 9.47951C10.9109 9.80408 10.1309 10.2415 9.52111 10.7919C8.91129 11.3423 8.59928 11.9773 8.59928 12.6688C8.59928 13.6284 8.88292 14.3481 9.46438 14.8279C10.0458 15.3077 10.7975 15.6323 11.7477 15.8298C12.6979 16.0274 13.7331 16.2109 14.8535 16.3661C17.4346 16.7471 19.8172 17.4104 22.0012 18.3841C24.171 19.3437 25.9154 20.642 27.2343 22.2507C28.539 23.8595 29.2056 25.821 29.2056 28.1212C29.2056 30.4215 28.539 32.51 27.2201 34.274C25.9012 36.038 24.1568 37.4068 21.9728 38.3947C19.803 39.3825 17.4204 39.8623 14.8535 39.8623Z" fill="black"/>
<path id="Vector_2" d="M51.8115 39.8623C49.2587 39.8623 46.862 39.3543 44.6212 38.3524C42.3805 37.3363 40.395 35.9392 38.6932 34.1612C36.9914 32.3831 35.6441 30.3086 34.6797 27.9519C33.7154 25.5953 33.219 23.0834 33.219 20.4021C33.219 17.7209 33.7012 15.209 34.6797 12.8523C35.6441 10.4956 36.9914 8.43528 38.6932 6.64307C40.395 4.85087 42.3805 3.4538 44.6212 2.45186C46.862 1.43581 49.2587 0.941895 51.8115 0.941895C54.3642 0.941895 56.7893 1.44992 59.03 2.45186C61.2708 3.46791 63.2562 4.86498 64.9581 6.64307C66.6599 8.43528 67.993 10.4956 68.9574 12.8523C69.9217 15.209 70.4039 17.7209 70.4039 20.4021C70.4039 23.0834 69.9217 25.5953 68.9574 27.9519C67.993 30.3086 66.6599 32.369 64.9581 34.1612C63.2562 35.9534 61.2708 37.3504 59.03 38.3524C56.7893 39.3543 54.3784 39.8623 51.8115 39.8623ZM51.8115 31.8186C53.2438 31.8186 54.6053 31.5222 55.8675 30.9154C57.1297 30.3227 58.25 29.4901 59.2286 28.4459C60.193 27.4016 60.9588 26.188 61.5119 24.8191C62.065 23.4362 62.3344 21.9685 62.3344 20.388C62.3344 18.8075 62.065 17.3398 61.5119 15.971C60.9588 14.588 60.2071 13.3885 59.2286 12.3301C58.2642 11.2859 57.1439 10.4674 55.8675 9.86057C54.6053 9.26788 53.2438 8.95742 51.8115 8.95742C50.3791 8.95742 49.0176 9.25377 47.7554 9.86057C46.4932 10.4533 45.3729 11.2859 44.3943 12.3301C43.43 13.3744 42.6641 14.588 42.111 15.971C41.5579 17.354 41.2885 18.8216 41.2885 20.388C41.2885 21.9544 41.5579 23.4362 42.111 24.8191C42.6641 26.2021 43.4158 27.4016 44.3943 28.4459C45.3587 29.4901 46.4791 30.3086 47.7554 30.9154C49.0176 31.5081 50.3791 31.8186 51.8115 31.8186Z" fill="black"/>
<path id="Vector_3" d="M74.999 39.1566V1.61914H90.358C92.4286 1.61914 94.2864 2.14128 95.9599 3.17144C97.6333 4.20161 98.9522 5.59868 99.9308 7.33444C100.909 9.0843 101.406 10.9894 101.406 13.0921C101.406 14.7008 101.136 16.1967 100.597 17.5796C100.058 18.9626 99.2926 20.1903 98.2999 21.2487C97.3071 22.3071 96.13 23.1679 94.7828 23.8029L103.732 39.1425H94.414L85.9049 24.5509H83.0969V39.1425H75.0132L74.999 39.1566ZM83.0827 16.5212H89.3936C90.1169 16.5212 90.7693 16.3378 91.3649 15.9709C91.9606 15.604 92.4286 15.1242 92.7973 14.5032C93.1519 13.8964 93.3362 13.2191 93.3362 12.4994C93.3362 11.7797 93.1519 11.1023 92.7973 10.4955C92.4428 9.88868 91.9606 9.39476 91.3649 9.02785C90.7693 8.66095 90.1169 8.47749 89.3936 8.47749H83.0827V16.5212Z" fill="black"/>
<path id="Vector_4" d="M124.465 39.8623C121.913 39.8623 119.516 39.3543 117.275 38.3524C115.034 37.3363 113.049 35.9392 111.347 34.1612C109.645 32.3831 108.298 30.3086 107.334 27.9519C106.369 25.5953 105.873 23.0834 105.873 20.4021C105.873 17.7209 106.355 15.209 107.334 12.8523C108.298 10.4956 109.645 8.43528 111.347 6.64307C113.049 4.85087 115.034 3.4538 117.275 2.45186C119.516 1.43581 121.913 0.941895 124.465 0.941895C127.018 0.941895 129.443 1.44992 131.684 2.45186C133.925 3.46791 135.91 4.86498 137.612 6.64307C139.314 8.43528 140.647 10.4956 141.611 12.8523C142.576 15.209 143.058 17.7209 143.058 20.4021C143.058 23.0834 142.576 25.5953 141.611 27.9519C140.647 30.3086 139.314 32.369 137.612 34.1612C135.91 35.9534 133.925 37.3504 131.684 38.3524C129.443 39.3543 127.032 39.8623 124.465 39.8623ZM124.465 31.8186C125.898 31.8186 127.259 31.5222 128.521 30.9154C129.783 30.3227 130.904 29.4901 131.882 28.4459C132.847 27.4016 133.613 26.188 134.166 24.8191C134.719 23.4362 134.988 21.9685 134.988 20.388C134.988 18.8075 134.719 17.3398 134.166 15.971C133.613 14.588 132.861 13.3885 131.882 12.3301C130.918 11.2859 129.798 10.4674 128.521 9.86057C127.259 9.26788 125.898 8.95742 124.465 8.95742C123.033 8.95742 121.671 9.25377 120.409 9.86057C119.147 10.4533 118.027 11.2859 117.048 12.3301C116.084 13.3744 115.318 14.588 114.765 15.971C114.212 17.354 113.942 18.8216 113.942 20.388C113.942 21.9544 114.212 23.4362 114.765 24.8191C115.318 26.2021 116.07 27.4016 117.048 28.4459C118.013 29.4901 119.133 30.3086 120.409 30.9154C121.671 31.5081 123.033 31.8186 124.465 31.8186Z" fill="black"/>
<path id="Vector_5" d="M147.639 39.1566V1.61914H162.998C165.068 1.61914 166.926 2.14128 168.6 3.17144C170.273 4.20161 171.592 5.59868 172.57 7.33444C173.549 9.0843 174.045 10.9894 174.045 13.0921C174.045 14.7008 173.776 16.1967 173.237 17.5796C172.698 18.9626 171.932 20.1903 170.94 21.2487C169.947 22.3071 168.77 23.1679 167.422 23.8029L176.371 39.1425H167.054L158.545 24.5509H155.737V39.1425H147.653L147.639 39.1566ZM155.722 16.5212H162.033C162.757 16.5212 163.409 16.3378 164.005 15.9709C164.6 15.604 165.068 15.1242 165.437 14.5032C165.792 13.8964 165.976 13.2191 165.976 12.4994C165.976 11.7797 165.792 11.1023 165.437 10.4955C165.082 9.88868 164.6 9.39476 164.005 9.02785C163.409 8.66095 162.757 8.47749 162.033 8.47749H155.722V16.5212Z" fill="black"/>
</g>
</g>
</g>
</svg>
