<svg width="142" height="23" viewBox="0 0 142 23" fill="none" xmlns="http://www.w3.org/2000/svg">
<path d="M76.7999 21.2L77.9999 1.9C78.1999 1.6 82.3 1.4 82.6 2.1L86.7 16.1L91.2 1.9H95.9999L96.8999 21.2H93.4999L92.9999 5.8L87.7999 21C86.9999 20.8 85.4999 21.3 84.9999 20.6L80.7 5.8L79.8999 21.2H76.7H76.7999Z" fill="black"/>
<path d="M17.5999 20.5007C10.6999 22.7007 2.19993 21.7007 1.29993 13.0007C0.499933 4.00067 9.09993 -0.199327 16.7999 2.60067L16.3999 5.40067C15.2999 5.40067 14.2999 4.90067 13.2999 4.80067C1.09993 3.60067 2.79993 21.7007 14.1999 18.4007V13.7007C14.2999 13.7007 10.9999 13.5007 10.9999 13.5007V10.7007H17.6999V20.6007L17.5999 20.5007Z" fill="black"/>
<path d="M30.4 21.4006H27.4L27 20.0006C26.1 20.5006 25.2 21.3006 24.1 21.5006C20.2 22.3006 17.3 18.9006 19 15.3006C20.1 12.8006 24.1 12.1006 26.6 12.2006C26.9 8.50059 22.5 9.30059 20.3 10.4006L19.5 8.10059C22.3 6.80059 27.6 6.10059 29.4 9.30059C29.7 9.90059 30.3 11.9006 30.3 12.6006V21.4006H30.4ZM27 14.5006C25.2 14.4006 22.2 14.6006 22.2 16.9006C22.1 19.3006 24.6 19.7006 26.1 18.3006C27.2 17.2006 27 15.9006 27 14.5006Z" fill="black"/>
<path d="M126.6 21.4006L123.6 21.2006L123.3 19.9006C120.6 22.9006 114.8 22.1006 114.8 17.5006C114.8 12.9006 119.5 12.1006 122.9 12.3006C123.3 8.40059 118.8 9.40059 116.5 10.5006C115.7 8.30059 115.9 8.00059 118.1 7.40059C120.6 6.80059 123.9 6.80059 125.5 9.10059C125.8 9.60059 126.6 11.2006 126.6 11.7006V21.5006V21.4006ZM123.2 14.5006C121.8 14.5006 120.4 14.5006 119.3 15.3006C116.7 17.3006 119.9 20.8006 122.4 18.2006C123.5 17.1006 123.2 15.9006 123.2 14.5006Z" fill="black"/>
<path d="M132.1 7.40039V16.5004C132.1 16.5004 132.5 17.5004 132.6 17.6004C134 19.9004 137.6 18.2004 137.6 16.0004V7.40039H141V21.4004L138 21.2004L137.6 19.4004C135.8 22.4004 130.6 22.6004 129.1 19.2004C129 19.0004 128.5 17.6004 128.5 17.5004V7.40039H132H132.1Z" fill="black"/>
<path d="M35.7001 7.40039V15.5004C35.7001 15.9004 36.2001 17.4004 36.4001 17.8004C37.1001 18.8004 38.6001 18.9004 39.7001 18.4004C40.1001 18.2004 41.2001 16.8004 41.2001 16.5004V7.40039H44.6001L44.8001 21.2004H41.6001V19.4004C39.5001 21.9004 35.1001 22.8004 33.1001 19.7004C32.8001 19.2004 32.1001 17.4004 32.1001 17.0004V7.40039H35.5001H35.7001Z" fill="black"/>
<path d="M57.1001 17.6003C57.4001 18.8003 59.1001 18.7003 60.1001 18.6003V21.3003C51.8001 23.1003 54.0001 15.5003 53.6001 10.2003L53.3001 9.80026H51.8001C51.8001 9.70026 51.6001 7.20026 51.6001 7.20026L53.6001 7.00026C54.0001 6.20026 53.3001 4.20026 54.1001 3.80026C54.3001 3.70026 56.8001 3.20026 56.9001 3.30026L57.1001 7.20026H60.3001V9.70026H57.1001C57.4001 11.9003 56.7001 15.4003 57.1001 17.4003V17.6003Z" fill="black"/>
<path d="M108.2 1.7002V21.4002H104.9L104.6 21.1002V1.7002H108.2Z" fill="black"/>
<path d="M113.7 1.7002V21.4002C112.7 21.0002 111.4 21.1002 110.4 21.4002L110.1 21.1002V1.7002H113.8H113.7Z" fill="black"/>
<path d="M50.4 1.7002C50.5 1.7002 50.2001 2.0002 50.2001 2.0002V21.2002H46.8V1.7002H50.5H50.4Z" fill="black"/>
<path d="M102.5 7.40039H99.1001V21.2004H102.5V7.40039Z" fill="black"/>
<path d="M66.0002 12.4004C64.5002 14.1004 64.4002 17.9004 65.7002 19.7004L67.4002 21.1004C61.9002 21.1004 60.1002 13.4004 66.0002 12.4004Z" fill="black"/>
<path d="M70.4001 21.2007C72.2001 19.9007 72.2001 17.4007 72.0001 15.4007C72.0001 15.0007 71.1001 14.0007 71.9001 14.1007C76.3001 15.1007 74.8001 21.4007 70.4001 21.2007Z" fill="black"/>
<path d="M67.4001 4.2002C67.1001 4.7002 66.5001 4.8002 66.2001 5.4002C65.4001 6.6002 65.1001 10.4002 66.4001 11.4002C66.7001 11.6002 66.4001 11.7002 66.2001 11.6002C61.2001 10.3002 62.7001 4.4002 67.4001 4.3002V4.2002Z" fill="black"/>
<path d="M100.4 1.49998C103.1 0.899984 103.8 5.09998 101 5.39998C98.6002 5.59998 98.0002 1.99998 100.4 1.49998Z" fill="black"/>
<path d="M66.9001 14.5C66.9001 10.7 72.9001 11.5 74.9001 9C74.9001 12.9 69.1001 12.2 66.9001 14.5Z" fill="black"/>
<path d="M69.6999 4.20059C70.3999 4.40059 71.6999 4.90059 71.9999 5.60059C72.8999 7.80059 70.1999 8.50059 69.6999 6.90059C69.3999 6.00059 70.6999 5.10059 69.6999 4.10059V4.20059Z" fill="black"/>
</svg>
