<svg width="19" height="22" viewBox="0 0 19 22" fill="none" xmlns="http://www.w3.org/2000/svg">
<path opacity="0.8" d="M9.1875 10.625C7.30078 10.625 5.57812 9.64062 4.63477 8C3.69141 6.40039 3.69141 4.39062 4.63477 2.75C5.57812 1.15039 7.30078 0.125 9.1875 0.125C11.0332 0.125 12.7559 1.15039 13.6992 2.75C14.6426 4.39062 14.6426 6.40039 13.6992 8C12.7559 9.64062 11.0332 10.625 9.1875 10.625ZM7.30078 12.5938H11.0332C15.0938 12.5938 18.375 15.875 18.375 19.9355C18.375 20.5918 17.8008 21.125 17.1445 21.125H1.18945C0.533203 21.125 0 20.5918 0 19.9355C0 15.875 3.24023 12.5938 7.30078 12.5938Z" fill="black"/>
</svg>
